<?xml version="1.0" encoding="UTF-8" standalone="no"?>
<svg
   width="800mm"
   height="800mm"
   viewBox="0 0 800 800"
   version="1.1"
   id="svg8"
   xmlns="http://www.w3.org/2000/svg"
   xmlns:svg="http://www.w3.org/2000/svg"
   xmlns:rdf="http://www.w3.org/1999/02/22-rdf-syntax-ns#"
   xmlns:cc="http://creativecommons.org/ns#"
   xmlns:dc="http://purl.org/dc/elements/1.1/">
  <defs
     id="defs2" />
  <metadata
     id="metadata5">
    <rdf:RDF>
      <cc:Work
         rdf:about="">
        <dc:format>image/svg+xml</dc:format>
        <dc:type
           rdf:resource="http://purl.org/dc/dcmitype/StillImage" />
      </cc:Work>
    </rdf:RDF>
  </metadata>
  <g
     id="layer1">
    <ellipse
       style="fill:#000000;fill-opacity:1;stroke-width:0.702922;stroke-linejoin:round"
       id="path1"
       cx="401.61121"
       cy="400.59872"
       rx="398.38879"
       ry="398.62381" />
    <g
       id="g3124"
       transform="translate(1.1496555)">
      <path
         id="path855"
         style="fill:#ededed;fill-opacity:1;stroke:none;stroke-width:0.912282"
         d="M 400.94712,1.4744963 A 398.87413,398.87413 0 0 0 2.0726091,400.34902 398.87413,398.87413 0 0 0 400.94712,799.22284 398.87413,398.87413 0 0 0 795.62808,457.85282 363.04106,363.04106 0 0 1 445.87373,724.59975 363.04106,363.04106 0 0 1 82.832093,361.55881 363.04106,363.04106 0 0 1 401.77359,1.4848281 398.87413,398.87413 0 0 0 400.94712,1.4744963 Z" />
      <g
         id="g685"
         transform="matrix(3.7039108,-0.9924599,0.99245834,3.703905,-92.062033,-521.77215)">
        <path
           id="path355-7-4"
           style="fill:#00ffff;stroke-width:0.264583"
           d="m 8.062038,223.43286 c 6.586497,71.95664 18.185475,23.50003 30.729908,94.57667 33.481195,-35.90984 41.869907,-47.47528 43.285729,-66.34531 -16.689808,0.21225 -29.005598,-1.90166 -74.015637,-28.23136 z" />
        <path
           id="path355"
           style="fill:#4d4d4d;stroke-width:0.999999"
           d="m 146.61523,1201.9258 c 147.21221,-131.0391 169.19606,-172.8399 187.92579,-233.0801 66.17563,27.12828 97.95027,70.79 187.92578,233.0801 C 443.33226,1021.4253 410.37117,987.60013 358.86719,951.17188 405.1171,896.61821 456.46032,879.8921 638.61133,844.4707 442.4913,863.95443 400.13708,884.84991 349.57617,922.57617 311.98456,861.73186 311.94101,807.73057 334.54102,623.54883 292.46673,816.09089 299.25217,862.83182 319.50781,922.57617 250.02498,939.52599 198.65416,922.87987 30.470703,844.4707 200.58739,943.98449 247.13525,951.97412 310.21484,951.17188 c -5.35113,71.31982 -37.0565,115.03172 -163.59961,250.75392 z"
           transform="scale(0.26458333)" />
        <path
           id="path355-7-4-6"
           style="fill:#00ffff;stroke-width:0.264583"
           d="m 38.792259,318.00951 c 70.470181,15.9717 27.969488,-10.03351 99.443831,-9e-5 -23.80603,-42.93926 -32.21317,-54.49131 -49.722113,-61.669 -4.955576,15.93854 -10.77181,26.99832 -49.721718,61.66909 z" />
        <path
           id="path355-7-4-8"
           style="fill:#00ffff;stroke-width:0.264583"
           d="m 138.23621,318.00917 c 36.96646,-62.08559 -0.89939,-29.70108 30.72975,-94.57672 -48.19413,9.37192 -61.77874,13.7978 -74.015684,28.23177 13.627084,9.63831 22.348254,18.58754 43.285934,66.34495 z" />
        <path
           id="path355-7-4-5"
           style="fill:#00ffff;stroke-width:0.264583"
           d="m 168.96591,223.43263 c -47.62364,-54.3427 -28.52533,-8.32277 -80.451784,-58.45154 -5.979583,48.73142 -5.968197,63.01882 3.977901,79.11719 13.377583,-9.98173 24.583793,-15.51059 76.473883,-20.66565 z" />
        <path
           id="path355-7-4-4"
           style="fill:#00ffff;stroke-width:0.264583"
           d="m 88.513969,164.98125 c -66.399492,28.49996 -16.730236,24.55733 -80.451694,58.45168 44.498545,20.74576 58.090187,25.14998 76.474165,20.66535 -5.359296,-15.80736 -7.154637,-28.17361 3.977529,-79.11703 z" />
      </g>
    </g>
  </g>
</svg>
